HIERARCHY
ROOT Hips
{
  OFFSET 7.333 -26.027 -164.856
  CHANNELS 6 Xposition Yposition Zposition Zrotation Xrotation Yrotation
  JOINT LeftUpLeg
  {
    OFFSET 10.092 0.000 0.000
    CHANNELS 3 Zrotation Xrotation Yrotation
    JOINT LeftLeg
    {
      OFFSET 0.000 -38.160 -0.000
    CHANNELS 3 Zrotation Xrotation Yrotation
      JOINT LeftFoot
      {
        OFFSET -0.000 -24.040 0.000
    CHANNELS 3 Zrotation Xrotation Yrotation
        End Site
        {
          OFFSET -0.000 0.000 12.945
        }
      }
    }
  }
  JOINT RightUpLeg
  {
    OFFSET -10.092 -0.000 0.000
    CHANNELS 3 Zrotation Xrotation Yrotation
    JOINT RightLeg
    {
      OFFSET 0.000 -33.046 0.000
    CHANNELS 3 Zrotation Xrotation Yrotation
      JOINT RightFoot
      {
        OFFSET 0.000 -22.031 -0.000
    CHANNELS 3 Zrotation Xrotation Yrotation
        End Site
        {
          OFFSET 0.000 -0.000 11.863
        }
      }
    }
  }
  JOINT Spine
  {
    OFFSET -0.000 16.511 0.000
    CHANNELS 3 Zrotation Xrotation Yrotation
    JOINT LeftShoulder
    {
      OFFSET 0 16.511 0
    CHANNELS 3 Zrotation Xrotation Yrotation
      JOINT LeftArm
      {
        OFFSET 16.337 0.000 0.000
    CHANNELS 3 Zrotation Xrotation Yrotation
        JOINT LeftForeArm
        {
          OFFSET 0.000 -24.030 0.000
    CHANNELS 3 Zrotation Xrotation Yrotation
          JOINT LeftHand
          {
            OFFSET 0.000 -17.629 -0.000
    CHANNELS 3 Zrotation Xrotation Yrotation
            End Site
            {
              OFFSET 0.000 -11.753 -0.000
            }
          }
        }
      }
    }
    JOINT RightShoulder
    {
      OFFSET 0 16.511 0
    CHANNELS 3 Zrotation Xrotation Yrotation
      JOINT RightArm
      {
        OFFSET -16.337 0.000 0.000
    CHANNELS 3 Zrotation Xrotation Yrotation
        JOINT RightForeArm
        {
          OFFSET -0.000 -19.534 0.000
    CHANNELS 3 Zrotation Xrotation Yrotation
          JOINT RightHand
          {
            OFFSET 0.000 -19.514 -0.000
    CHANNELS 3 Zrotation Xrotation Yrotation
            End Site
            {
              OFFSET 0.000 -13.010 -0.000
            }
          }
        }
      }
    }
    JOINT Neck
    {
      OFFSET -0.000 16.511 0.000
    CHANNELS 3 Zrotation Xrotation Yrotation
      JOINT Head
      {
        OFFSET -0.000 12.493 -0.000
    CHANNELS 3 Zrotation Xrotation Yrotation
        End Site
        {
          OFFSET -0.000 8.328 -0.000
        }
      }
    }
  }
}
MOTION
Frames: 10
Frame Time: 0.0333333
0 0 0 4.270091e-01 -1.582083e+00 -1.143320e+01 -3.594991e+00 1.485140e+01 6.098741e-01 6.604720e+00 -1.865963e+01 1.137408e+00 0 1.047120e-08 -7.220533e-09 -2.089996e+00 1.468487e+01 2.139131e-01 5.987630e+00 -1.783016e+01 1.220360e+00 0 0 -2.304917e-08 1.806181e-07 -1.133403e-06 -3.694866e-05 0 0 0 6.067763e+00 -3.000627e+01 -7.728303e+01 1.189548e+02 -3.818510e+01 1.268740e+02 -5.751759e-08 1.696616e-07 1.488492e-07 0 0 0 -1.340655e+00 -3.364460e+01 9.379640e+01 -1.129927e+02 -3.861502e+01 1.488473e+02 -6.581927e-08 1.965778e-07 NaN -4.166319e-01 -1.798928e+00 -1.308200e-02 0 0 1.165066e-07 
0 0 0 7.179331e-01 -1.689909e+00 -9.791346e+00 -3.197601e+00 1.395262e+01 6.983129e-01 5.851344e+00 -1.726545e+01 1.192681e+00 0 1.502148e-08 1.451257e-08 -1.575049e+00 1.471938e+01 1.983385e-01 5.053790e+00 -1.714454e+01 1.043543e+00 0 0 -2.793712e-08 3.760962e-07 -1.232183e-06 -2.700000e-05 0 0 0 2.465176e+00 -3.814482e+01 -8.624544e+01 1.117035e+02 -2.921026e+01 1.224099e+02 -2.415833e-07 1.839693e-07 NaN 0 0 0 -1.316345e+01 -4.167338e+01 1.052347e+02 -1.016030e+02 -2.780482e+01 1.434341e+02 -1.398503e-07 NaN 3.780129e-08 -3.228531e-01 -1.316130e+00 -7.421000e-03 0 0 1.061785e-07 
0 0 0 1.408924e+00 -1.585858e+00 -7.721887e+00 -4.104941e+00 1.296171e+01 5.975221e-01 5.734744e+00 -1.645870e+01 1.139970e+00 0 2.103708e-08 3.007997e-08 -2.915107e+00 1.509342e+01 2.043518e-01 5.848991e+00 -1.914501e+01 1.001017e+00 0 0 -1.272302e-08 4.912857e-07 -2.039634e-06 -4.296215e-05 0 0 0 2.259682e+00 -4.246918e+01 -8.504911e+01 1.111359e+02 -2.416845e+01 1.253375e+02 NaN NaN -4.177497e-09 0 0 0 -2.846135e+01 -4.908509e+01 1.037238e+02 -9.900860e+01 -2.168984e+01 1.426268e+02 -7.562546e-08 -2.000000e-06 1.215252e-08 -4.176264e-01 -5.675021e-01 -4.126921e-03 0 0 1.548584e-07 
0 0 0 8.000514e-01 -1.281117e+00 -1.021380e+01 -3.820427e+00 1.182690e+01 6.360638e-01 6.401012e+00 -1.512683e+01 1.027178e+00 0 1.679200e-08 2.361779e-08 -2.614220e+00 1.557192e+01 2.216593e-01 6.818233e+00 -1.796280e+01 1.325850e+00 0 0 -3.210398e-08 -3.818882e-07 2.600156e-06 -4.899422e-05 0 0 0 6.688272e+00 -4.248594e+01 -7.425089e+01 1.142149e+02 -1.959492e+01 1.341203e+02 NaN 1.690133e-07 1.464251e-07 0 0 0 -3.246016e+01 -5.148590e+01 9.343619e+01 -1.020336e+02 -1.610922e+01 1.461855e+02 -3.961889e-08 -7.010340e-10 2.465639e-08 -2.573136e-01 2.603732e-01 1.169199e-03 0 0 7.039218e-08 
0 0 0 9.977676e-01 -1.476740e+00 -1.170970e+01 -4.065672e+00 1.186216e+01 6.244655e-01 6.155172e+00 -1.467781e+01 1.116967e+00 0 1.887809e-08 2.659593e-08 -3.052264e+00 1.578817e+01 2.180764e-01 6.805185e+00 -1.545092e+01 1.023920e+00 0 0 -2.609046e-08 2.839637e-07 -1.503389e-06 8.076774e-05 0 0 0 3.967303e+00 -3.841628e+01 -6.463271e+01 1.125657e+02 -1.180612e+01 1.418181e+02 -3.041838e-08 4.137931e-08 NaN 0 0 0 -3.281971e+01 -4.945453e+01 7.604194e+01 -1.042029e+02 -8.114844e+00 1.472169e+02 -9.082712e-08 -1.323489e-23 2.600892e-08 1.149262e-01 5.141720e-01 -1.032500e-03 0 0 1.021987e-07 
0 0 0 9.196137e-01 -1.938416e+00 -1.218852e+01 -4.997333e+00 1.294534e+01 6.936362e-01 7.301292e+00 -1.517144e+01 1.088374e+00 0 1.510940e-08 1.213207e-09 -3.575130e+00 1.617488e+01 2.013426e-01 7.316545e+00 -1.649110e+01 1.094767e+00 0 0 -3.155685e-08 2.504856e-07 -1.185525e-06 1.602293e-05 0 0 0 2.033487e+00 -2.950466e+01 -4.054640e+01 1.085517e+02 -9.127110e+00 1.389877e+02 -1.383047e-07 1.735492e-07 NaN 0 0 0 -3.152052e+01 -4.183898e+01 5.826654e+01 -1.032716e+02 -1.409547e+00 1.464171e+02 -8.818935e-08 2.943831e-08 4.593237e-09 -4.587100e-02 6.362386e-01 4.464746e-04 0 0 1.782249e-07 
0 0 0 6.882903e-01 -1.857740e+00 -1.264520e+01 -4.617851e+00 1.346020e+01 5.473956e-01 7.191850e+00 -1.631344e+01 1.158398e+00 0 1.194348e-08 -1.723640e-09 -3.341215e+00 1.671425e+01 2.054780e-01 7.524396e+00 -1.740849e+01 1.288701e+00 0 0 -1.043219e-07 2.880633e-07 -1.749000e-06 1.696892e-05 0 0 0 2.739666e+00 -1.911278e+01 -2.344132e+01 1.015682e+02 -9.213043e+00 1.232572e+02 NaN 2.400241e-07 5.674658e-07 0 0 0 -2.926758e+01 -2.982813e+01 4.682302e+01 -1.051125e+02 7.527104e-01 1.479494e+02 -4.813970e-08 1.330279e-07 -1.001923e-10 7.349998e-02 5.077176e-01 -6.562314e-04 0 0 2.729442e-07 
0 0 0 1.844058e-01 -1.975880e+00 -1.468955e+01 -3.588683e+00 1.410359e+01 5.558884e-01 6.599587e+00 -1.608416e+01 1.140141e+00 0 1.634734e-08 1.886476e-08 -2.409505e+00 1.769630e+01 2.152404e-01 6.912530e+00 -1.709320e+01 1.350980e+00 0 0 -3.420678e-08 2.054623e-06 -5.044749e-06 -2.599845e-05 0 0 0 3.253440e+00 -6.170080e+00 -9.100384e+00 9.358020e+01 -1.451854e+01 9.751111e+01 -1.759755e-07 NaN NaN 0 0 0 -2.650346e+01 -2.305460e+01 4.148634e+01 -1.035747e+02 1.650899e+00 1.412398e+02 -9.371126e-08 8.982059e-08 2.640752e-08 2.100637e-01 5.343517e-01 -1.982760e-03 0 0 NaN 
0 0 0 -1.368557e-01 -1.688688e+00 -1.545110e+01 -2.391088e+00 1.376940e+01 6.391897e-01 5.220062e+00 -1.540224e+01 1.068813e+00 0 1.671990e-08 -1.060017e-08 -1.436692e+00 1.738350e+01 2.328619e-01 5.948848e+00 -1.659961e+01 1.304503e+00 0 0 -5.122263e-08 NaN -1.278466e-06 2.806904e-05 0 0 0 4.312441e+00 2.756246e+00 2.636428e+00 8.905272e+01 -2.140280e+01 8.761226e+01 -1.598438e-07 5.839016e-08 NaN 0 0 0 -2.247741e+01 -1.744445e+01 3.693622e+01 -1.035270e+02 2.035750e+00 1.399580e+02 -1.083934e-07 1.391868e-07 -4.810314e-07 2.448633e-02 7.281781e-01 -3.150269e-04 0 0 1.940783e-08 
0 0 0 2.336447e-01 -2.635639e-01 -1.623014e+01 -2.629890e+00 1.322995e+01 6.368783e-01 5.721321e+00 -1.729994e+01 1.152100e+00 0 1.625162e-08 -1.273290e-07 -1.502748e+00 1.712387e+01 2.199252e-01 5.869159e+00 -1.681812e+01 1.276756e+00 0 0 -5.015398e-08 NaN -8.171451e-07 1.189886e-04 0 0 0 4.110226e+00 7.277573e+00 1.353563e+01 8.753099e+01 -2.484619e+01 8.581424e+01 NaN 2.451467e-07 7.914667e-08 0 0 0 -1.528194e+01 -1.657469e+01 3.654295e+01 -1.024478e+02 5.410629e+00 1.461189e+02 -1.634265e-07 2.234004e-07 NaN 1.685585e-01 1.200054e+00 -3.557740e-03 0 0 1.770578e-07 
